<?xml version="1.0" encoding="UTF-8" standalone="no"?>
<!-- Created with Inkscape (http://www.inkscape.org/) -->

<svg
   width="52.125793"
   height="49.999939"
   viewBox="0 0 52.125793 49.999939"
   version="1.1"
   id="svg5"
   inkscape:version="1.2.2 (b0a8486541, 2022-12-01)"
   sodipodi:docname="intro-vid-bg.svg"
   inkscape:export-filename="intro-vid-bg.png"
   inkscape:export-xdpi="96"
   inkscape:export-ydpi="96"
   xml:space="preserve"
   xmlns:inkscape="http://www.inkscape.org/namespaces/inkscape"
   xmlns:sodipodi="http://sodipodi.sourceforge.net/DTD/sodipodi-0.dtd"
   xmlns="http://www.w3.org/2000/svg"
   xmlns:svg="http://www.w3.org/2000/svg"><sodipodi:namedview
     id="namedview7"
     pagecolor="#ffffff"
     bordercolor="#000000"
     borderopacity="0.25"
     inkscape:showpageshadow="2"
     inkscape:pageopacity="0.0"
     inkscape:pagecheckerboard="0"
     inkscape:deskcolor="#d1d1d1"
     inkscape:document-units="px"
     showgrid="false"
     inkscape:zoom="1.0126365"
     inkscape:cx="433.02803"
     inkscape:cy="304.65028"
     inkscape:window-width="1920"
     inkscape:window-height="1003"
     inkscape:window-x="0"
     inkscape:window-y="0"
     inkscape:window-maximized="1"
     inkscape:current-layer="layer1" /><defs
     id="defs2" /><g
     inkscape:label="Layer 1"
     inkscape:groupmode="layer"
     id="layer1"
     transform="translate(-305.04022,-550.97009)"><g
       id="g2075"><path
         id="path6733"
         style="font-variation-settings:normal;opacity:0.5;vector-effect:none;fill:#ffffff;fill-opacity:1;stroke:none;stroke-width:1.09966;stroke-linecap:butt;stroke-linejoin:miter;stroke-miterlimit:2;stroke-dasharray:none;stroke-dashoffset:0;stroke-opacity:1;paint-order:stroke markers fill;stop-color:#000000"
         d="m 331.59265,563.13465 a 0.227459,0.16977671 0 0 0 -0.22062,0.20146 l 10.04041,37.63395 a 26.062854,26.062854 0 0 0 11.77281,-10.09351 l -21.3941,-27.6584 a 0.227459,0.16977671 0 0 0 -0.1985,-0.0835 z" /><path
         id="circle6810"
         style="fill:#ffffff;fill-opacity:1;stroke:none;stroke-width:0.602236px;stroke-opacity:1;paint-order:stroke markers fill;stop-color:#000000"
         d="m 331.00522,550.97011 a 26.062854,26.062854 0 0 0 -25.96499,26.06265 26.062854,26.062854 0 0 0 3.97957,13.84263 l 21.72982,-28.09281 a 0.40686543,0.30368672 0 0 1 0.70521,0 l 21.73102,28.09397 a 26.062854,26.062854 0 0 0 3.98017,-13.84379 26.062854,26.062854 0 0 0 -26.06275,-26.06265 26.062854,26.062854 0 0 0 -0.0981,0 z" /></g></g></svg>
