<?xml version="1.0" encoding="UTF-8" standalone="no"?>
<!-- Created with Inkscape (http://www.inkscape.org/) -->

<svg
   width="46.923477"
   height="50"
   viewBox="0 0 46.923477 50"
   version="1.1"
   id="svg5"
   xml:space="preserve"
   sodipodi:docname="mastodon.svg"
   inkscape:version="1.1.1 (3bf5ae0d25, 2021-09-20)"
   xmlns:inkscape="http://www.inkscape.org/namespaces/inkscape"
   xmlns:sodipodi="http://sodipodi.sourceforge.net/DTD/sodipodi-0.dtd"
   xmlns="http://www.w3.org/2000/svg"
   xmlns:svg="http://www.w3.org/2000/svg"><sodipodi:namedview
     id="namedview6"
     pagecolor="#ffffff"
     bordercolor="#666666"
     borderopacity="1.0"
     inkscape:pageshadow="2"
     inkscape:pageopacity="0.0"
     inkscape:pagecheckerboard="0"
     showgrid="false"
     inkscape:zoom="9.22"
     inkscape:cx="23.481562"
     inkscape:cy="25"
     inkscape:window-width="1366"
     inkscape:window-height="699"
     inkscape:window-x="0"
     inkscape:window-y="0"
     inkscape:window-maximized="1"
     inkscape:current-layer="svg5" /><defs
     id="defs2" /><g
     id="layer1"
     transform="translate(-119.48003,-528.20319)"
     style="fill:#ffffff"><path
       id="path3115"
       style="fill:#ffffff;fill-opacity:1;stroke-width:0.769237"
       d="m 142.49351,528.20319 c -8.2213,0 -9.98454,0.50439 -10.92101,0.64304 -5.39603,0.79766 -10.32348,4.60169 -11.51905,10.03764 -0.57506,2.67709 -0.63718,5.64447 -0.53035,8.36696 0.15228,3.90425 0.18178,7.80196 0.53636,11.69029 0.24513,2.58287 0.67315,5.14586 1.28006,7.66834 1.13648,4.65873 5.73617,8.53557 10.24344,10.11727 4.82566,1.64948 10.01562,1.92274 14.98813,0.79027 0.547,-0.12723 1.0877,-0.27498 1.62109,-0.44321 1.20916,-0.384 2.62494,-0.81255 3.66595,-1.56702 0.0146,-0.0106 0.0269,-0.0249 0.0345,-0.0405 0.008,-0.0158 0.0128,-0.0333 0.0135,-0.0511 v -3.76806 c -3.1e-4,-0.0166 -0.008,-0.0331 -0.0121,-0.0481 -0.008,-0.0148 -0.0169,-0.0273 -0.03,-0.0375 -0.0131,-0.0102 -0.0289,-0.0174 -0.0451,-0.021 -0.0161,-0.004 -0.0335,-0.004 -0.0496,0 -3.18588,0.76093 -6.44967,1.14182 -9.72508,1.13583 -5.6369,0 -7.15314,-2.67404 -7.58722,-3.7876 -0.349,-0.96239 -0.57108,-1.96694 -0.65962,-2.9868 0,-0.0171 -1.6e-4,-0.0339 0.009,-0.0496 0.008,-0.0156 0.0185,-0.0297 0.0315,-0.0405 0.0131,-0.0109 0.0289,-0.0174 0.0451,-0.021 0.0169,-0.004 0.0342,-0.004 0.0511,0 3.13272,0.7557 6.34313,1.13667 9.56585,1.13583 0.775,0 1.5477,7.6e-4 2.32279,-0.0195 3.24118,-0.0909 6.65782,-0.25772 9.84677,-0.88042 0.0795,-0.0159 0.15877,-0.0291 0.22693,-0.0495 5.03004,-0.96585 9.81708,-3.9971 10.30354,-11.67377 0.0185,-0.30223 0.0646,-3.16598 0.0646,-3.4796 0,-1.06572 0.34339,-7.55989 -0.0496,-11.55057 -0.72277,-5.37234 -5.40512,-9.60638 -10.95563,-10.42678 -0.93647,-0.13863 -4.48542,-0.64303 -12.70441,-0.64303 z m -6.85698,8.18066 c 2.7071,0 4.7525,1.04111 6.11629,3.12052 l 1.31616,2.20855 1.31763,-2.20855 c 1.36378,-2.07941 3.41072,-3.12052 6.11328,-3.12052 2.33663,0 4.22011,0.82272 5.66112,2.42489 1.39109,1.6044 2.08541,3.77089 2.08387,6.49946 v 13.34747 h -5.28851 v -12.95383 c 0,-2.7271 -1.13639,-4.11813 -3.44803,-4.11813 -2.54117,0 -3.81465,1.64508 -3.81465,4.89487 v 7.08991 h -5.25696 v -7.08991 c 0,-3.24979 -1.27494,-4.89487 -3.81611,-4.89487 -2.29794,0 -3.44503,1.39103 -3.44503,4.11813 v 12.95383 h -5.28704 V 545.3082 c 0,-2.7271 0.69581,-4.89353 2.08836,-6.49946 1.43659,-1.60217 3.32076,-2.42489 5.65962,-2.42489 z" /></g></svg>
